<svg width="20" height="20" viewBox="0 0 20 20" fill="none" xmlns="http://www.w3.org/2000/svg">
<path fill-rule="evenodd" clip-rule="evenodd" d="M18.5716 16.0716V16.8573C18.5716 17.7859 17.7859 18.5716 16.8573 18.5716H3.143C2.21443 18.5716 1.42871 17.7859 1.42871 16.8573V16.0716C1.42871 14.0001 3.85728 12.7144 6.143 11.7144L6.35728 11.6073C6.53585 11.5359 6.71443 11.5359 6.893 11.643C7.82157 12.2501 8.85728 12.5716 9.96443 12.5716C11.0716 12.5716 12.143 12.2144 13.0359 11.643C13.2144 11.5359 13.393 11.5359 13.5716 11.6073L13.7859 11.7144C16.143 12.7144 18.5716 13.9644 18.5716 16.0716ZM10.0001 1.42871C12.3573 1.42871 14.2501 3.53585 14.2501 6.143C14.2501 8.75014 12.3573 10.8573 10.0001 10.8573C7.643 10.8573 5.75014 8.75014 5.75014 6.143C5.75014 3.53585 7.643 1.42871 10.0001 1.42871Z" fill="#2D2F3B"/>
</svg>
